<svg width="50" height="48" viewBox="0 0 50 48" fill="none" xmlns="http://www.w3.org/2000/svg">
<rect width="50" height="48" fill="#E5E5E5"/>
<g filter="url(#filter0_d_0_1)">
<ellipse cx="25" cy="23.9893" rx="25" ry="23.9893" fill="url(#paint0_linear_0_1)"/>
</g>
<g clip-path="url(#clip0_0_1)">
<path fill-rule="evenodd" clip-rule="evenodd" d="M21.6863 28.9321H18.3725V25.6725H21.6863V28.9321ZM28.1863 28.9321V25.6725H31.5V28.9321H28.1863ZM18.5 22.5382H15.1863V38.335H18.3725V35.4514H21.5588V32.0664H28.3137V35.4514H31.5V38.335H34.6863V22.5382H31.3726V19.5293H34.4314V16.395H38V13.3861H31.7549V16.395H28.1863V19.5293H21.6863V16.395H18.1176V13.3861H12V16.395H15.4412V19.5293H18.5V22.5382Z" fill="white"/>
<path d="M12.165 36.3134C12.165 37.3634 12.895 38.0984 13.93 38.0984C14.765 38.0984 15.395 37.6334 15.595 36.8734H14.655C14.51 37.1734 14.245 37.3234 13.92 37.3234C13.395 37.3234 13.035 36.9334 13.035 36.3134C13.035 35.6934 13.395 35.3034 13.92 35.3034C14.245 35.3034 14.51 35.4534 14.655 35.7534H15.595C15.395 34.9934 14.765 34.5234 13.93 34.5234C12.895 34.5234 12.165 35.2634 12.165 36.3134ZM16.9736 36.7784C16.9736 36.2984 17.2086 36.1584 17.6136 36.1584H17.8486V35.2534C17.4736 35.2534 17.1686 35.4534 16.9736 35.7484V35.2834H16.1186V38.0734H16.9736V36.7784ZM13.54 43.9284C13.825 43.9284 14.065 44.1034 14.065 44.4084H12.995C13.045 44.0984 13.26 43.9284 13.54 43.9284ZM14.875 45.1484H13.965C13.895 45.2984 13.76 45.4184 13.52 45.4184C13.245 45.4184 13.02 45.2484 12.99 44.8834H14.925C14.935 44.7984 14.94 44.7134 14.94 44.6334C14.94 43.7834 14.365 43.2434 13.55 43.2434C12.72 43.2434 12.14 43.7934 12.14 44.6784C12.14 45.5634 12.73 46.1134 13.55 46.1134C14.245 46.1134 14.74 45.6934 14.875 45.1484ZM15.2211 44.6734C15.2211 45.5534 15.7661 46.1134 16.4461 46.1134C16.8611 46.1134 17.1561 45.9234 17.3111 45.6784V46.0734H18.1661V43.2834H17.3111V43.6784C17.1611 43.4334 16.8661 43.2434 16.4511 43.2434C15.7661 43.2434 15.2211 43.7934 15.2211 44.6734ZM17.3111 44.6784C17.3111 45.1234 17.0261 45.3684 16.7011 45.3684C16.3811 45.3684 16.0911 45.1184 16.0911 44.6734C16.0911 44.2284 16.3811 43.9884 16.7011 43.9884C17.0261 43.9884 17.3111 44.2334 17.3111 44.6784ZM12.445 53.1034C12.445 53.8284 12.85 54.0734 13.43 54.0734H13.865V53.3484H13.56C13.37 53.3484 13.3 53.2784 13.3 53.1134V51.9934H13.86V51.2834H13.3V50.6034H12.445V51.2834H12.105V51.9934H12.445V53.1034ZM15.5713 51.9284C15.8563 51.9284 16.0963 52.1034 16.0963 52.4084H15.0263C15.0763 52.0984 15.2913 51.9284 15.5713 51.9284ZM16.9063 53.1484H15.9963C15.9263 53.2984 15.7913 53.4184 15.5513 53.4184C15.2763 53.4184 15.0513 53.2484 15.0213 52.8834H16.9563C16.9663 52.7984 16.9712 52.7134 16.9712 52.6334C16.9712 51.7834 16.3963 51.2434 15.5813 51.2434C14.7513 51.2434 14.1713 51.7934 14.1713 52.6784C14.1713 53.5634 14.7613 54.1134 15.5813 54.1134C16.2763 54.1134 16.7713 53.6934 16.9063 53.1484ZM12.14 60.6734C12.14 61.5534 12.685 62.1134 13.37 62.1134C13.78 62.1134 14.075 61.9284 14.23 61.6734V62.0734H15.085V58.3734H14.23V59.6684C14.06 59.4134 13.74 59.2434 13.37 59.2434C12.685 59.2434 12.14 59.7934 12.14 60.6734ZM14.23 60.6784C14.23 61.1234 13.945 61.3684 13.62 61.3684C13.3 61.3684 13.01 61.1184 13.01 60.6734C13.01 60.2284 13.3 59.9884 13.62 59.9884C13.945 59.9884 14.23 60.2334 14.23 60.6784ZM13.165 67.6784V66.3734H12.31V70.0734H13.165V69.6834C13.32 69.9284 13.615 70.1134 14.025 70.1134C14.71 70.1134 15.255 69.5534 15.255 68.6734C15.255 67.7934 14.715 67.2434 14.025 67.2434C13.625 67.2434 13.32 67.4284 13.165 67.6784ZM14.385 68.6734C14.385 69.1184 14.095 69.3684 13.77 69.3684C13.45 69.3684 13.16 69.1234 13.16 68.6784C13.16 68.2334 13.45 67.9884 13.77 67.9884C14.095 67.9884 14.385 68.2284 14.385 68.6734ZM16.9886 69.0284L16.3436 67.2834H15.3886L16.5236 69.9784L15.8836 71.3984H16.8036L18.5536 67.2834H17.6286L16.9886 69.0284ZM14.46 74.5634H12.31V78.0734H14.46V77.3884H13.165V76.6184H14.31V75.9584H13.165V75.2484H14.46V74.5634ZM16.9401 78.0734H17.7901V76.4434C17.7901 75.6934 17.3601 75.2534 16.7151 75.2534C16.3401 75.2534 16.0401 75.4184 15.8701 75.6534V75.2834H15.0151V78.0734H15.8701V76.5584C15.8701 76.1784 16.0801 75.9684 16.4051 75.9684C16.7301 75.9684 16.9401 76.1784 16.9401 76.5584V78.0734ZM14.575 85.2634C14.56 84.2234 13.05 84.5384 13.05 84.0934C13.05 83.9584 13.16 83.8784 13.36 83.8784C13.6 83.8784 13.745 84.0034 13.77 84.1934H14.56C14.505 83.6434 14.105 83.2434 13.385 83.2434C12.655 83.2434 12.25 83.6334 12.25 84.1084C12.25 85.1334 13.77 84.8084 13.77 85.2584C13.77 85.3834 13.655 85.4834 13.435 85.4834C13.2 85.4834 13.025 85.3534 13.005 85.1584H12.16C12.2 85.6984 12.7 86.1134 13.445 86.1134C14.145 86.1134 14.575 85.7484 14.575 85.2634ZM15.0981 86.0734H15.9531V84.5584C15.9531 84.1784 16.1631 83.9684 16.4881 83.9684C16.8131 83.9684 17.0231 84.1784 17.0231 84.5584V86.0734H17.8731V84.4434C17.8731 83.6934 17.4481 83.2534 16.8131 83.2534C16.4281 83.2534 16.1231 83.4184 15.9531 83.6584V82.3734H15.0981V86.0734ZM18.4672 86.0734H19.3222V83.2834H18.4672V86.0734ZM18.8972 82.9934C19.1972 82.9934 19.4022 82.7884 19.4022 82.5334C19.4022 82.2734 19.1972 82.0684 18.8972 82.0684C18.5922 82.0684 18.3872 82.2734 18.3872 82.5334C18.3872 82.7884 18.5922 82.9934 18.8972 82.9934ZM12.14 92.6734C12.14 93.5534 12.685 94.1134 13.365 94.1134C13.78 94.1134 14.075 93.9234 14.23 93.6784V94.0734H15.085V91.2834H14.23V91.6784C14.08 91.4334 13.785 91.2434 13.37 91.2434C12.685 91.2434 12.14 91.7934 12.14 92.6734ZM14.23 92.6784C14.23 93.1234 13.945 93.3684 13.62 93.3684C13.3 93.3684 13.01 93.1184 13.01 92.6734C13.01 92.2284 13.3 91.9884 13.62 91.9884C13.945 91.9884 14.23 92.2334 14.23 92.6784Z" fill="white"/>
<path d="M12.395 38.373H13.25V36.293H13.71V35.583H13.25V35.558C13.25 35.263 13.365 35.163 13.695 35.183V34.458C12.845 34.413 12.395 34.773 12.395 35.503V35.583H12.085V36.293H12.395V38.373ZM14.9668 37.078C14.9668 36.598 15.2018 36.458 15.6068 36.458H15.8418V35.553C15.4668 35.553 15.1618 35.753 14.9668 36.048V35.583H14.1118V38.373H14.9668V37.078ZM18.9804 36.978C18.9804 36.093 18.3504 35.543 17.5304 35.543C16.7154 35.543 16.0804 36.093 16.0804 36.978C16.0804 37.863 16.7004 38.413 17.5204 38.413C18.3404 38.413 18.9804 37.863 18.9804 36.978ZM16.9504 36.978C16.9504 36.503 17.2204 36.283 17.5304 36.283C17.8304 36.283 18.1104 36.503 18.1104 36.978C18.1104 37.448 17.8254 37.673 17.5204 37.673C17.2104 37.673 16.9504 37.448 16.9504 36.978ZM16.155 46.373H17.005V44.743C17.005 43.993 16.56 43.553 15.87 43.553C15.465 43.553 15.115 43.778 14.93 44.073C14.74 43.738 14.4 43.553 13.98 43.553C13.615 43.553 13.33 43.708 13.165 43.933V43.583H12.31V46.373H13.165V44.858C13.165 44.493 13.375 44.293 13.7 44.293C14.025 44.293 14.235 44.493 14.235 44.858V46.373H15.085V44.858C15.085 44.493 15.295 44.293 15.62 44.293C15.945 44.293 16.155 44.493 16.155 44.858V46.373ZM12.445 53.403C12.445 54.128 12.85 54.373 13.43 54.373H13.865V53.648H13.56C13.37 53.648 13.3 53.578 13.3 53.413V52.293H13.86V51.583H13.3V50.903H12.445V51.583H12.105V52.293H12.445V53.403ZM14.3413 54.373H15.1963V52.858C15.1963 52.478 15.4063 52.268 15.7313 52.268C16.0563 52.268 16.2663 52.478 16.2663 52.858V54.373H17.1163V52.743C17.1163 51.993 16.6913 51.553 16.0563 51.553C15.6713 51.553 15.3663 51.718 15.1963 51.958V50.673H14.3413V54.373ZM13.54 60.228C13.825 60.228 14.065 60.403 14.065 60.708H12.995C13.045 60.398 13.26 60.228 13.54 60.228ZM14.875 61.448H13.965C13.895 61.598 13.76 61.718 13.52 61.718C13.245 61.718 13.02 61.548 12.99 61.183H14.925C14.935 61.098 14.94 61.013 14.94 60.933C14.94 60.083 14.365 59.543 13.55 59.543C12.72 59.543 12.14 60.093 12.14 60.978C12.14 61.863 12.73 62.413 13.55 62.413C14.245 62.413 14.74 61.993 14.875 61.448ZM14.595 66.863V69.038L13.165 66.863H12.31V70.373H13.165V68.208L14.595 70.373H15.45V66.863H14.595ZM18.7998 68.978C18.7998 68.093 18.1698 67.543 17.3498 67.543C16.5348 67.543 15.8998 68.093 15.8998 68.978C15.8998 69.863 16.5198 70.413 17.3398 70.413C18.1598 70.413 18.7998 69.863 18.7998 68.978ZM16.7698 68.978C16.7698 68.503 17.0398 68.283 17.3498 68.283C17.6498 68.283 17.9298 68.503 17.9298 68.978C17.9298 69.448 17.6448 69.673 17.3398 69.673C17.0298 69.673 16.7698 69.448 16.7698 68.978ZM15.065 75.583H14.21V77.098C14.21 77.478 14 77.688 13.67 77.688C13.35 77.688 13.135 77.478 13.135 77.098V75.583H12.285V77.213C12.285 77.958 12.72 78.403 13.365 78.403C13.74 78.403 14.04 78.233 14.21 77.993V78.373H15.065V75.583ZM17.6041 78.373H18.4541V76.743C18.4541 75.993 18.0241 75.553 17.3791 75.553C17.0041 75.553 16.7041 75.718 16.5341 75.953V75.583H15.6791V78.373H16.5341V76.858C16.5341 76.478 16.7441 76.268 17.0691 76.268C17.3941 76.268 17.6041 76.478 17.6041 76.858V78.373ZM13.165 84.433V83.553H13.63C13.97 83.553 14.115 83.723 14.115 83.993C14.115 84.263 13.97 84.433 13.63 84.433H13.165ZM14.985 83.993C14.985 83.348 14.555 82.863 13.695 82.863H12.31V86.373H13.165V85.113H13.695C14.59 85.113 14.985 84.573 14.985 83.993ZM16.2851 85.078C16.2851 84.598 16.5201 84.458 16.9251 84.458H17.1601V83.553C16.7851 83.553 16.4801 83.753 16.2851 84.048V83.583H15.4301V86.373H16.2851V85.078ZM15.04 92.978C15.04 92.093 14.41 91.543 13.59 91.543C12.775 91.543 12.14 92.093 12.14 92.978C12.14 93.863 12.76 94.413 13.58 94.413C14.4 94.413 15.04 93.863 15.04 92.978ZM13.01 92.978C13.01 92.503 13.28 92.283 13.59 92.283C13.89 92.283 14.17 92.503 14.17 92.978C14.17 93.448 13.885 93.673 13.58 93.673C13.27 93.673 13.01 93.448 13.01 92.978ZM15.9186 91.293C16.2186 91.293 16.4236 91.088 16.4236 90.833C16.4236 90.573 16.2186 90.368 15.9186 90.368C15.6136 90.368 15.4086 90.573 15.4086 90.833C15.4086 91.088 15.6136 91.293 15.9186 91.293ZM15.4936 91.583V94.743C15.4936 94.908 15.4236 94.978 15.2336 94.978H15.0286V95.703H15.3636C15.9436 95.703 16.3486 95.458 16.3486 94.733V91.583H15.4936ZM18.1933 92.228C18.4783 92.228 18.7183 92.403 18.7183 92.708H17.6483C17.6983 92.398 17.9133 92.228 18.1933 92.228ZM19.5283 93.448H18.6183C18.5483 93.598 18.4133 93.718 18.1733 93.718C17.8983 93.718 17.6733 93.548 17.6433 93.183H19.5783C19.5883 93.098 19.5933 93.013 19.5933 92.933C19.5933 92.083 19.0183 91.543 18.2033 91.543C17.3733 91.543 16.7933 92.093 16.7933 92.978C16.7933 93.863 17.3833 94.413 18.2033 94.413C18.8983 94.413 19.3933 93.993 19.5283 93.448ZM12.14 100.978C12.14 101.863 12.72 102.413 13.54 102.413C14.24 102.413 14.735 102.008 14.88 101.363H13.97C13.895 101.568 13.76 101.683 13.525 101.683C13.22 101.683 13.01 101.443 13.01 100.978C13.01 100.513 13.22 100.273 13.525 100.273C13.76 100.273 13.9 100.398 13.97 100.593H14.88C14.735 99.928 14.24 99.543 13.54 99.543C12.72 99.543 12.14 100.098 12.14 100.978ZM15.4723 101.403C15.4723 102.128 15.8773 102.373 16.4573 102.373H16.8923V101.648H16.5873C16.3973 101.648 16.3273 101.578 16.3273 101.413V100.293H16.8873V99.583H16.3273V98.903H15.4723V99.583H15.1323V100.293H15.4723V101.403Z" fill="white"/>
</g>
<defs>
<filter id="filter0_d_0_1" x="-52" y="-52" width="154" height="151.979" filterUnits="userSpaceOnUse" color-interpolation-filters="sRGB">
<feFlood flood-opacity="0" result="BackgroundImageFix"/>
<feColorMatrix in="SourceAlpha" type="matrix" values="0 0 0 0 0 0 0 0 0 0 0 0 0 0 0 0 0 0 127 0" result="hardAlpha"/>
<feOffset/>
<feGaussianBlur stdDeviation="26"/>
<feComposite in2="hardAlpha" operator="out"/>
<feColorMatrix type="matrix" values="0 0 0 0 0.956863 0 0 0 0 0.909804 0 0 0 0 0.0117647 0 0 0 0.61 0"/>
<feBlend mode="normal" in2="BackgroundImageFix" result="effect1_dropShadow_0_1"/>
<feBlend mode="normal" in="SourceGraphic" in2="effect1_dropShadow_0_1" result="shape"/>
</filter>
<linearGradient id="paint0_linear_0_1" x1="25" y1="0" x2="25" y2="47.9786" gradientUnits="userSpaceOnUse">
<stop stop-color="#F4E803"/>
<stop offset="0.692708" stop-color="#F4A003"/>
</linearGradient>
<clipPath id="clip0_0_1">
<rect width="26" height="24.9489" fill="white" transform="translate(12 11.5149)"/>
</clipPath>
</defs>
</svg>
